<svg width="207" height="15" viewBox="0 0 207 15" fill="none" xmlns="http://www.w3.org/2000/svg">
<path d="M7.23295 14.2045C10.9723 14.2045 13.9957 11.1811 13.983 7.45455C13.9702 3.72798 10.9723 0.704545 7.23295 0.704545C3.51918 0.704545 0.495739 3.72798 0.482955 7.45455C0.470171 11.1811 3.51918 14.2045 7.23295 14.2045ZM7.23295 12.7216C4.32457 12.7216 1.95312 10.3501 1.96591 7.46094C1.97869 4.55256 4.33736 2.1875 7.23295 2.1875C10.1413 2.1875 12.4872 4.53977 12.5 7.46094C12.5128 10.3629 10.1541 12.7216 7.23295 12.7216ZM3.5 7.45455C3.5 9.55114 5.20028 11.2514 7.29688 11.2514C9.11222 11.2514 10.5057 9.97301 10.7486 8.27273H9.2017C9.02273 9.14844 8.28125 9.76847 7.29688 9.76847C6.01847 9.76847 4.98295 8.73295 4.98295 7.45455C4.98295 6.17614 6.01847 5.14062 7.29688 5.14062C8.28125 5.14062 9.15696 5.76065 9.32955 6.63636H10.8764C10.6335 4.93608 9.11222 3.65767 7.29688 3.65767C5.20028 3.65767 3.5 5.35795 3.5 7.45455ZM21.8883 14H30.1468V12.5938H24.0616V12.4915L27.002 9.34659C29.252 6.93679 29.9167 5.81179 29.9167 4.3608C29.9167 2.34091 28.2804 0.730113 25.9792 0.730113C23.6845 0.730113 21.9395 2.28977 21.9395 4.59091H23.448C23.448 3.10156 24.4132 2.1108 25.9281 2.1108C27.3471 2.1108 28.4338 2.98011 28.4338 4.3608C28.4338 5.56889 27.7243 6.46378 26.2093 8.11932L21.8883 12.8494V14ZM37.0566 14.179C39.9458 14.179 41.6078 11.7308 41.6078 7.45455C41.6078 3.21023 39.9203 0.730113 37.0566 0.730113C34.193 0.730113 32.5055 3.21023 32.5055 7.45455C32.5055 11.7308 34.1674 14.179 37.0566 14.179ZM37.0566 12.7727C35.1518 12.7727 34.0396 10.8615 34.0396 7.45455C34.0396 4.05398 35.1646 2.1108 37.0566 2.1108C38.9487 2.1108 40.0737 4.05398 40.0737 7.45455C40.0737 10.8615 38.9615 12.7727 37.0566 12.7727ZM44.0368 14H52.2953V12.5938H46.21V12.4915L49.1504 9.34659C51.4004 6.93679 52.0652 5.81179 52.0652 4.3608C52.0652 2.34091 50.4288 0.730113 48.1277 0.730113C45.8329 0.730113 44.0879 2.28977 44.0879 4.59091H45.5964C45.5964 3.10156 46.5616 2.1108 48.0765 2.1108C49.4956 2.1108 50.5822 2.98011 50.5822 4.3608C50.5822 5.56889 49.8727 6.46378 48.3578 8.11932L44.0368 12.8494V14ZM59.2051 14.179C62.0943 14.179 63.7562 11.7308 63.7562 7.45455C63.7562 3.21023 62.0687 0.730113 59.2051 0.730113C56.3414 0.730113 54.6539 3.21023 54.6539 7.45455C54.6539 11.7308 56.3159 14.179 59.2051 14.179ZM59.2051 12.7727C57.3002 12.7727 56.188 10.8615 56.188 7.45455C56.188 4.05398 57.313 2.1108 59.2051 2.1108C61.0971 2.1108 62.2221 4.05398 62.2221 7.45455C62.2221 10.8615 61.1099 12.7727 59.2051 12.7727ZM72.0147 14L73.3315 10.2926H78.6241L79.9409 14H81.6028L76.796 0.909091H75.1596L70.3528 14H72.0147ZM73.8301 8.88636L75.9267 2.98011H76.0289L78.1255 8.88636H73.8301ZM83.4373 14H84.9458V7.78693C84.9458 6.45739 85.9941 5.4858 87.426 5.4858C87.8287 5.4858 88.2441 5.5625 88.3464 5.58807V4.05398C88.1738 4.04119 87.7775 4.02841 87.5538 4.02841C86.3777 4.02841 85.3549 4.69318 84.997 5.66477H84.8947V4.18182H83.4373V14ZM93.8244 14.2045C96.4835 14.2045 98.2733 12.1847 98.2733 9.14205C98.2733 6.07386 96.4835 4.05398 93.8244 4.05398C91.1653 4.05398 89.3755 6.07386 89.3755 9.14205C89.3755 12.1847 91.1653 14.2045 93.8244 14.2045ZM93.8244 12.8494C91.8045 12.8494 90.8841 11.1108 90.8841 9.14205C90.8841 7.1733 91.8045 5.40909 93.8244 5.40909C95.8443 5.40909 96.7647 7.1733 96.7647 9.14205C96.7647 11.1108 95.8443 12.8494 93.8244 12.8494ZM106.763 9.9858C106.763 11.8267 105.357 12.6705 104.232 12.6705C102.979 12.6705 102.085 11.75 102.085 10.3182V4.18182H100.576V10.4205C100.576 12.9261 101.906 14.1278 103.746 14.1278C105.229 14.1278 106.201 13.3352 106.661 12.3381H106.763V14H108.272V4.18182H106.763V9.9858ZM112.544 8.09375C112.544 6.38068 113.605 5.40909 115.049 5.40909C116.449 5.40909 117.299 6.32315 117.299 7.86364V14H118.808V7.76136C118.808 5.25568 117.472 4.05398 115.484 4.05398C114.001 4.05398 113.08 4.71875 112.62 5.71591H112.492V4.18182H111.035V14H112.544V8.09375ZM125.272 14.2045C127.164 14.2045 127.803 13.0284 128.135 12.4915H128.314V14H129.772V0.909091H128.263V5.74148H128.135C127.803 5.23011 127.215 4.05398 125.297 4.05398C122.817 4.05398 121.104 6.02273 121.104 9.11648C121.104 12.2358 122.817 14.2045 125.272 14.2045ZM125.476 12.8494C123.584 12.8494 122.613 11.1875 122.613 9.09091C122.613 7.01989 123.559 5.40909 125.476 5.40909C127.317 5.40909 128.289 6.89205 128.289 9.09091C128.289 11.3153 127.292 12.8494 125.476 12.8494ZM137.295 2.31534H141.412V14H142.997V2.31534H147.113V0.909091H137.295V2.31534ZM150.864 8.09375C150.864 6.38068 151.957 5.40909 153.446 5.40909C154.865 5.40909 155.722 6.30398 155.722 7.86364V14H157.23V7.76136C157.23 5.23651 155.888 4.05398 153.881 4.05398C152.334 4.05398 151.452 4.69957 150.992 5.71591H150.864V0.909091H149.355V14H150.864V8.09375ZM164.107 14.2045C166.101 14.2045 167.558 13.2074 168.018 11.7244L166.561 11.3153C166.178 12.3381 165.289 12.8494 164.107 12.8494C162.336 12.8494 161.115 11.7053 161.045 9.60227H168.172V8.96307C168.172 5.30682 165.999 4.05398 163.953 4.05398C161.294 4.05398 159.53 6.15057 159.53 9.16761C159.53 12.1847 161.268 14.2045 164.107 14.2045ZM161.045 8.2983C161.147 6.7706 162.227 5.40909 163.953 5.40909C165.589 5.40909 166.638 6.63636 166.638 8.2983H161.045ZM184.325 0.909091V9.44886C184.325 11.3665 183.008 12.7472 180.822 12.7472C178.636 12.7472 177.319 11.3665 177.319 9.44886V0.909091H175.734V9.5767C175.734 12.2614 177.741 14.2301 180.822 14.2301C183.903 14.2301 185.91 12.2614 185.91 9.5767V0.909091H184.325ZM189.355 14.1023C189.988 14.1023 190.506 13.5845 190.506 12.9517C190.506 12.3189 189.988 11.8011 189.355 11.8011C188.722 11.8011 188.205 12.3189 188.205 12.9517C188.205 13.5845 188.722 14.1023 189.355 14.1023ZM200.576 4.18182H202.11C202.04 2.20668 200.218 0.730113 197.687 0.730113C195.181 0.730113 193.213 2.1875 193.213 4.38636C193.213 6.15057 194.491 7.19886 196.537 7.78693L198.147 8.24716C199.528 8.63068 200.755 9.11648 200.755 10.4205C200.755 11.8523 199.375 12.7983 197.559 12.7983C196 12.7983 194.619 12.108 194.491 10.625H192.855C193.008 12.7727 194.747 14.2301 197.559 14.2301C200.576 14.2301 202.289 12.5682 202.289 10.446C202.289 7.99148 199.963 7.19886 198.608 6.84091L197.278 6.48295C196.306 6.22727 194.747 5.71591 194.747 4.30966C194.747 3.05682 195.897 2.13636 197.636 2.13636C199.221 2.13636 200.423 2.89062 200.576 4.18182ZM205.791 14.1023C206.423 14.1023 206.941 13.5845 206.941 12.9517C206.941 12.3189 206.423 11.8011 205.791 11.8011C205.158 11.8011 204.64 12.3189 204.64 12.9517C204.64 13.5845 205.158 14.1023 205.791 14.1023Z" fill="#545454"/>
</svg>
